<svg width="18" height="18" viewBox="0 0 18 18" fill="none" xmlns="http://www.w3.org/2000/svg">
<path fill-rule="evenodd" clip-rule="evenodd" d="M1.09934 5.51928C0.666672 6.30972 0.666672 7.26323 0.666672 9.17026V10.4378C0.666672 13.6885 0.666672 15.3139 1.64298 16.3238C2.61929 17.3337 4.19064 17.3337 7.33334 17.3337H10.6667C13.8094 17.3337 15.3807 17.3337 16.357 16.3238C17.3333 15.3139 17.3333 13.6885 17.3333 10.4378V9.17026C17.3333 7.26323 17.3333 6.30972 16.9007 5.51928C16.468 4.72883 15.6776 4.23825 14.0966 3.2571L12.43 2.22272C10.7588 1.18557 9.92329 0.666992 9.00001 0.666992C8.07673 0.666992 7.24116 1.18557 5.57003 2.22272L3.90337 3.2571C2.32246 4.23825 1.53201 4.72883 1.09934 5.51928ZM8.37501 14.0003C8.37501 14.3455 8.65483 14.6253 9.00001 14.6253C9.34518 14.6253 9.62501 14.3455 9.62501 14.0003V11.5003C9.62501 11.1551 9.34518 10.8753 9.00001 10.8753C8.65483 10.8753 8.37501 11.1551 8.37501 11.5003V14.0003Z" fill="#637381"/>
</svg>
