<svg width="66" height="86" viewBox="0 0 66 86" fill="none" xmlns="http://www.w3.org/2000/svg">
<path fill-rule="evenodd" clip-rule="evenodd" d="M33 0.208252C22.0694 0.208252 13.2084 9.06928 13.2084 19.9999C13.2084 30.9306 22.0694 39.7916 33 39.7916C43.9307 39.7916 52.7917 30.9306 52.7917 19.9999C52.7917 9.06928 43.9307 0.208252 33 0.208252ZM19.4584 19.9999C19.4584 12.5211 25.5212 6.45825 33 6.45825C40.4789 6.45825 46.5417 12.5211 46.5417 19.9999C46.5417 27.4788 40.4789 33.5416 33 33.5416C25.5212 33.5416 19.4584 27.4788 19.4584 19.9999Z" fill="#F9FAFF"/>
<path fill-rule="evenodd" clip-rule="evenodd" d="M33 46.0416C24.5028 46.0416 16.6564 48.003 10.8257 51.3349C5.08336 54.6162 0.708374 59.6255 0.708374 65.8333C0.708374 72.041 5.08336 77.0503 10.8257 80.3316C16.6564 83.6635 24.5028 85.6249 33 85.6249C41.4973 85.6249 49.3437 83.6635 55.1744 80.3316C60.9167 77.0503 65.2917 72.041 65.2917 65.8333C65.2917 59.6255 60.9167 54.6162 55.1744 51.3349C49.3437 48.003 41.4973 46.0416 33 46.0416ZM6.95837 65.8333C6.95837 62.8363 9.11257 59.5122 13.9265 56.7614C18.6521 54.0611 25.389 52.2916 33 52.2916C40.6111 52.2916 47.348 54.0611 52.0736 56.7614C56.8875 59.5122 59.0417 62.8363 59.0417 65.8333C59.0417 68.8302 56.8875 72.1543 52.0736 74.9051C47.348 77.6054 40.6111 79.3749 33 79.3749C25.389 79.3749 18.6521 77.6054 13.9265 74.9051C9.11257 72.1543 6.95837 68.8302 6.95837 65.8333Z" fill="#F9FAFF"/>
</svg>
