<svg width="100" height="100" viewBox="0 0 100 100" fill="none" xmlns="http://www.w3.org/2000/svg">
<path fill-rule="evenodd" clip-rule="evenodd" d="M47.7083 11.25C27.573 11.25 11.25 27.573 11.25 47.7083C11.25 67.8437 27.573 84.1667 47.7083 84.1667C67.8437 84.1667 84.1667 67.8437 84.1667 47.7083C84.1667 27.573 67.8437 11.25 47.7083 11.25ZM5 47.7083C5 24.1212 24.1212 5 47.7083 5C71.2955 5 90.4167 24.1212 90.4167 47.7083C90.4167 58.3771 86.5047 68.1323 80.0369 75.6175L93.6681 89.2486C94.8884 90.469 94.8884 92.4477 93.6681 93.6681C92.4477 94.8884 90.469 94.8884 89.2486 93.6681L75.6175 80.0369C68.1323 86.5047 58.3771 90.4167 47.7083 90.4167C24.1212 90.4167 5 71.2955 5 47.7083Z" fill="#F9FAFF"/>
</svg>
